<svg width="128" height="128" viewBox="0 0 128 128" xmlns="http://www.w3.org/2000/svg">
  <defs>
    <!-- 主背景渐变 -->
    <linearGradient id="bgGradient" x1="0%" y1="0%" x2="100%" y2="100%">
      <stop offset="0%" stop-color="#3B82F6"/>
      <stop offset="100%" stop-color="#8B5CF6"/>
    </linearGradient>
    
    <!-- 文档渐变 -->
    <linearGradient id="docGradient" x1="0%" y1="0%" x2="100%" y2="100%">
      <stop offset="0%" stop-color="#FFFFFF"/>
      <stop offset="100%" stop-color="#F8FAFC"/>
    </linearGradient>
  </defs>
  
  <!-- 背景圆角矩形 -->
  <rect x="24" y="24" width="80" height="80" rx="18" ry="18" 
        fill="url(#bgGradient)"/>
  
  <!-- 文档主体 - 简化版 -->
  <g transform="translate(42, 36)">
    <!-- 文档背景 -->
    <rect x="0" y="8" width="36" height="48" rx="3" ry="3" 
          fill="url(#docGradient)" stroke="#E2E8F0" stroke-width="1.2"/>
    
    <!-- 文档折角 - 调整 -->
    <path d="M27 8 L36 8 L36 17 Z" fill="#F1F5F9"/>
    <path d="M27 8 L27 17 L36 17 Z" fill="none" stroke="#E2E8F0" stroke-width="1.2"/>
    
    <!-- 文档内容线条 - 调整尺寸 -->
    <rect x="4" y="18" width="18" height="2" rx="1" fill="#CBD5E1"/>
    <rect x="4" y="24" width="24" height="2" rx="1" fill="#CBD5E1"/>
    <rect x="4" y="30" width="20" height="2" rx="1" fill="#CBD5E1"/>
  </g>
  
  <!-- 写作工具图标 (笔尖) - 简化版 -->
  <g transform="translate(74, 58)">
    <!-- 笔尖 - 调整尺寸 -->
    <circle cx="10" cy="10" r="4" fill="#1E40AF"/>
    <circle cx="10" cy="10" r="2.5" fill="#60A5FA"/>
    <!-- 高光 -->
    <circle cx="11" cy="9" r="0.6" fill="#FFFFFF" opacity="0.9"/>
  </g>
  
  <!-- 简化的流线 -->
  <path d="M30 94 Q52 84 86 80" 
        fill="none" stroke="#10B981" stroke-width="3.5" stroke-linecap="round" opacity="0.8"/>
</svg>