<svg width="128" height="128" viewBox="0 0 128 128" xmlns="http://www.w3.org/2000/svg">
  <defs>
    <!-- 主背景渐变 -->
    <linearGradient id="bgGradient" x1="0%" y1="0%" x2="100%" y2="100%">
      <stop offset="0%" stop-color="#3B82F6"/>
      <stop offset="50%" stop-color="#6366F1"/>
      <stop offset="100%" stop-color="#8B5CF6"/>
    </linearGradient>
    
    <!-- 文档渐变 -->
    <linearGradient id="docGradient" x1="0%" y1="0%" x2="100%" y2="100%">
      <stop offset="0%" stop-color="#FFFFFF"/>
      <stop offset="100%" stop-color="#F8FAFC"/>
    </linearGradient>
    
    <!-- 流线渐变 -->
    <linearGradient id="flowGradient" x1="0%" y1="0%" x2="100%" y2="0%">
      <stop offset="0%" stop-color="#10B981"/>
      <stop offset="100%" stop-color="#06B6D4"/>
    </linearGradient>
    
    <!-- 阴影滤镜 -->
    <filter id="shadow" x="-20%" y="-20%" width="140%" height="140%">
      <feDropShadow dx="0" dy="4" stdDeviation="8" flood-opacity="0.25"/>
    </filter>
    
    <!-- 内阴影滤镜 -->
    <filter id="innerShadow" x="-50%" y="-50%" width="200%" height="200%">
      <feOffset dx="0" dy="2"/>
      <feGaussianBlur stdDeviation="2"/>
      <feComposite operator="out" in2="SourceGraphic"/>
      <feComponentTransfer>
        <feFuncA type="discrete" tableValues="0 .1"/>
      </feComponentTransfer>
    </filter>
  </defs>
  
  <!-- 背景圆角矩形 -->
  <rect x="32" y="32" width="64" height="64" rx="14" ry="14" 
        fill="url(#bgGradient)" filter="url(#shadow)"/>
  
  <!-- 文档主体 -->
  <g transform="translate(42, 38)">
    <!-- 文档背景 -->
    <rect x="0" y="6" width="28" height="36" rx="2" ry="2" 
          fill="url(#docGradient)" stroke="#E2E8F0" stroke-width="0.8"/>
    
    <!-- 文档折角 -->
    <path d="M21 6 L28 6 L28 13 Z" fill="#F1F5F9"/>
    <path d="M21 6 L21 13 L28 13 Z" fill="none" stroke="#E2E8F0" stroke-width="0.8"/>
    
    <!-- 文档内容线条 -->
    <rect x="3" y="14" width="14" height="1" rx="0.5" fill="#CBD5E1"/>
    <rect x="3" y="18" width="18" height="1" rx="0.5" fill="#CBD5E1"/>
    <rect x="3" y="22" width="15" height="1" rx="0.5" fill="#CBD5E1"/>
    <rect x="3" y="26" width="17" height="1" rx="0.5" fill="#CBD5E1"/>
  </g>
  
  <!-- AI 流线效果 -->
  <g opacity="0.9">
    <!-- 主流线 -->
    <path d="M38 88 Q48 78 58 80 Q70 78 86 70" 
          fill="none" stroke="url(#flowGradient)" stroke-width="2" stroke-linecap="round"/>
    
    <!-- 流线装饰点 -->
    <circle cx="42" cy="85" r="1" fill="#10B981" opacity="0.8">
      <animate attributeName="opacity" values="0.8;1;0.8" dur="2s" repeatCount="indefinite"/>
    </circle>
    <circle cx="54" cy="80" r="0.8" fill="#06B6D4" opacity="0.6">
      <animate attributeName="opacity" values="0.6;1;0.6" dur="2.5s" repeatCount="indefinite"/>
    </circle>
    <circle cx="74" cy="76" r="1.2" fill="#0EA5E9" opacity="0.7">
      <animate attributeName="opacity" values="0.7;1;0.7" dur="3s" repeatCount="indefinite"/>
    </circle>
  </g>
  
  <!-- 写作工具图标 (笔尖) -->
  <g transform="translate(72, 54)" opacity="0.95">
    <!-- 笔身 -->
    <rect x="4" y="0" width="1.5" height="10" rx="0.8" fill="#1E40AF" transform="rotate(45 4.75 5)"/>
    <!-- 笔尖 -->
    <circle cx="9" cy="9" r="2" fill="#3B82F6"/>
    <circle cx="9" cy="9" r="1.2" fill="#60A5FA"/>
    <!-- 高光 -->
    <circle cx="9.8" cy="8.2" r="0.3" fill="#FFFFFF" opacity="0.8"/>
  </g>
  
  <!-- 顶部高光 -->
  <rect x="32" y="32" width="64" height="16" rx="14" ry="14" 
        fill="url(#bgGradient)" opacity="0.3" mask="url(#topMask)"/>
  
  <defs>
    <mask id="topMask">
      <rect x="32" y="32" width="64" height="8" fill="white"/>
    </mask>
  </defs>
</svg>