<svg width="128" height="128" viewBox="0 0 128 128" xmlns="http://www.w3.org/2000/svg">
  <defs>
    <!-- 主背景渐变 -->
    <linearGradient id="bgGradient" x1="0%" y1="0%" x2="100%" y2="100%">
      <stop offset="0%" stop-color="#3B82F6"/>
      <stop offset="50%" stop-color="#6366F1"/>
      <stop offset="100%" stop-color="#8B5CF6"/>
    </linearGradient>
    
    <!-- 文档渐变 -->
    <linearGradient id="docGradient" x1="0%" y1="0%" x2="100%" y2="100%">
      <stop offset="0%" stop-color="#FFFFFF"/>
      <stop offset="100%" stop-color="#F8FAFC"/>
    </linearGradient>
    
    <!-- 流线渐变 -->
    <linearGradient id="flowGradient" x1="0%" y1="0%" x2="100%" y2="0%">
      <stop offset="0%" stop-color="#10B981"/>
      <stop offset="100%" stop-color="#06B6D4"/>
    </linearGradient>
    
    <!-- 阴影滤镜 -->
    <filter id="shadow" x="-20%" y="-20%" width="140%" height="140%">
      <feDropShadow dx="0" dy="4" stdDeviation="8" flood-opacity="0.25"/>
    </filter>
  </defs>
  
  <!-- 背景圆角矩形 -->
  <rect x="14" y="14" width="100" height="100" rx="22" ry="22" 
        fill="url(#bgGradient)" filter="url(#shadow)"/>
  
  <!-- 文档主体 -->
  <g transform="translate(36, 26)">
    <!-- 文档背景 -->
    <rect x="0" y="12" width="44" height="55" rx="5" ry="5" 
          fill="url(#docGradient)" stroke="#E2E8F0" stroke-width="1.4"/>
    
    <!-- 文档折角 -->
    <path d="M33 12 L44 12 L44 23 Z" fill="#F1F5F9"/>
    <path d="M33 12 L33 23 L44 23 Z" fill="none" stroke="#E2E8F0" stroke-width="1.4"/>
    
    <!-- 文档内容线条 -->
    <rect x="6" y="23" width="22" height="1.8" rx="0.9" fill="#CBD5E1"/>
    <rect x="6" y="28" width="28" height="1.8" rx="0.9" fill="#CBD5E1"/>
    <rect x="6" y="33" width="25" height="1.8" rx="0.9" fill="#CBD5E1"/>
    <rect x="6" y="38" width="27" height="1.8" rx="0.9" fill="#CBD5E1"/>
    <rect x="6" y="43" width="20" height="1.8" rx="0.9" fill="#CBD5E1"/>
    <rect x="6" y="48" width="24" height="1.8" rx="0.9" fill="#CBD5E1"/>
  </g>
  
  <!-- AI 流线效果 (无动画) -->
  <g opacity="0.9">
    <!-- 主流线 -->
    <path d="M20 105 Q38 88 60 94 Q82 90 108 78" 
          fill="none" stroke="url(#flowGradient)" stroke-width="3.5" stroke-linecap="round"/>
    
    <!-- 流线装饰点 -->
    <circle cx="26" cy="101" r="1.8" fill="#10B981" opacity="0.8"/>
    <circle cx="48" cy="92" r="1.5" fill="#06B6D4" opacity="0.6"/>
    <circle cx="78" cy="88" r="2" fill="#0EA5E9" opacity="0.7"/>
  </g>
  
  <!-- 写作工具图标 (笔尖) -->
  <g transform="translate(92, 72)" opacity="0.95">
    <!-- 笔身 -->
    <rect x="7" y="0" width="3" height="18" rx="1.5" fill="#1E40AF" transform="rotate(45 8.5 9)"/>
    <!-- 笔尖 -->
    <circle cx="16" cy="16" r="3.5" fill="#3B82F6"/>
    <circle cx="16" cy="16" r="2.3" fill="#60A5FA"/>
    <!-- 高光 -->
    <circle cx="17.5" cy="14.5" r="0.6" fill="#FFFFFF" opacity="0.8"/>
  </g>
  
  <!-- 顶部高光 -->
  <rect x="14" y="14" width="100" height="25" rx="22" ry="22" 
        fill="url(#bgGradient)" opacity="0.3" mask="url(#topMask)"/>
  
  <defs>
    <mask id="topMask">
      <rect x="14" y="14" width="100" height="13" fill="white"/>
    </mask>
  </defs>
</svg>

